<?xml version="1.0" encoding="utf-8"?>
<?xml-stylesheet type="text/xsl" href="rss1.xsl"?>
<rss version="2.0" xmlns:atom="http://www.w3.org/2005/Atom" xmlns:content="http://purl.org/rss/1.0/modules/content/" xmlns:dc="http://purl.org/dc/elements/1.1/" xmlns:media="http://search.yahoo.com/mrss/">
<channel>
 <title>Getty</title>
 <link>http://www.gettyimg.com/</link>
 <atom:link href="http://www.gettyimg.com/" rel="self" type="application/rss+xml" />

 
                <item>
                <title><![CDATA[【Cinema Center】MOVIE - Barbie.and.Her.Sisters.in.a.Pony.Tale.2013.1080p.AMZN.MULTi.WEB-DL.H.264-Sebastian09]]></title>
                <link><![CDATA[https://sharemania.us/threads/barbie-and-her-sisters-in-a-pony-tale-2013-1080p-amzn-multi-web-dl-h-264-sebastian09.247705/]]></link>
                <description><![CDATA[<article>
<blockquote class="messageText SelectQuoteContainer ugc baseHtml">
General<br>
Unique ID : 311745692855156293349645181684888572250 (0xEA8809576E7834ACA72591ADEBD3115A)<br>
Complete name : Barbie.and.Her.Sisters.in.a.Pony.Tale.2013.1080p.AMZN.MULTi.WEB-DL.H.264-Sebastian09.mkv<br>
Format : Matroska<br>
Format version : Version 4<br>
File size : 4.38 GiB<br>
Duration : 1 h 15 min<br>
Overall bit rate : 8 345 kb/s<br>
Frame rate : 23.976 FPS<br>
Encoded date : 2024-06-23 09:20:34 UTC<br>
Writing application : mkvmerge v82.0 ('I'm The President') 64-bit<br>
Writing library : libebml v1.4.5 + libmatroska v1.7.1<br>
<br>
Video<br>
ID : 1<br>
Format : AVC<br>
Format/Info : Advanced Video Codec<br>
Format profile : High@L4<br>
Format settings : CABAC / 4 Ref Frames<br>
Format settings, CABAC : Yes<br>
Format settings, Reference frames : 4 frames<br>
Codec ID : V_MPEG4/ISO/AVC<br>
Duration : 1 h 15 min<br>
Bit rate mode : Constant<br>
Bit rate : 6 838 kb/s<br>
Nominal bit rate : 10 000 kb/s<br>
Width : 1 920 pixels<br>
Height : 1 080 pixels<br>
Display aspect ratio : 16:9<br>
Frame rate mode : Constant<br>
Frame rate : 23.976 (24000/1001) FPS<br>
Color space : YUV<br>
Chroma subsampling : 4:2:0<br>
Bit depth : 8 bits<br>
Scan type : Progressive<br>
Bits/(Pixel*Frame) : 0.138<br>
Stream size : 3.59 GiB (82%)<br>
Default : Yes<br>
Forced : No<br>
Color range : Limited<br>
Color primaries : BT.709<br>
Transfer characteristics : BT.709<br>
Matrix coefficients : BT.709<br>
<br>
Audio #1<br>
ID : 2<br>
Format : E-AC-3<br>
Format/Info : Enhanced AC-3<br>
Commercial name : Dolby Digital Plus<br>
Codec ID : A_EAC3<br>
Duration : 1 h 15 min<br>
Bit rate mode : Constant<br>
Bit rate : 640 kb/s<br>
Channel(s) : 6 channels<br>
Channel layout : L R C LFE Ls Rs<br>
Sampling rate : 48.0 kHz<br>
Frame rate : 31.250 FPS (1536 SPF)<br>
Compression mode : Lossy<br>
Stream size : 344 MiB (8%)<br>
Language : Polish<br>
Service kind : Complete Main<br>
Default : Yes<br>
Forced : No<br>
Dialog Normalization : -31 dB<br>
compr : -0.28 dB<br>
dialnorm_Average : -31 dB<br>
dialnorm_Minimum : -31 dB<br>
dialnorm_Maximum : -31 dB<br>
<br>
Audio #2<br>
ID : 3<br>
Format : E-AC-3<br>
Format/Info : Enhanced AC-3<br>
Commercial name : Dolby Digital Plus<br>
Codec ID : A_EAC3<br>
Duration : 1 h 15 min<br>
Bit rate mode : Constant<br>
Bit rate : 640 kb/s<br>
Channel(s) : 6 channels<br>
Channel layout : L R C LFE Ls Rs<br>
Sampling rate : 48.0 kHz<br>
Frame rate : 31.250 FPS (1536 SPF)<br>
Compression mode : Lossy<br>
Stream size : 344 MiB (8%)<br>
Language : English<br>
Service kind : Complete Main<br>
Default : No<br>
Forced : No<br>
Dialog Normalization : -31 dB<br>
compr : -0.28 dB<br>
dialnorm_Average : -31 dB<br>
dialnorm_Minimum : -31 dB<br>
dialnorm_Maximum : -31 dB<br>
<br>
Audio #3<br>
ID : 4<br>
Format : E-AC-3<br>
Format/Info : Enhanced AC-3<br>
Commercial name : Dolby Digital Plus<br>
Codec ID : A_EAC3<br>
Duration : 1 h 15 min<br>
Bit rate mode : Constant<br>
Bit rate : 224 kb/s<br>
Channel(s) : 2 channels<br>
Channel layout : L R<br>
Sampling rate : 48.0 kHz<br>
Frame rate : 31.250 FPS (1536 SPF)<br>
Compression mode : Lossy<br>
Stream size : 120 MiB (3%)<br>
Language : English<br>
Service kind : Complete Main<br>
Default : No<br>
Forced : No<br>
Dialog Normalization : -31 dB<br>
compr : -0.28 dB<br>
dsurmod : Not Dolby Surround encoded<br>
dialnorm_Average : -31 dB<br>
dialnorm_Minimum : -31 dB<br>
dialnorm_Maximum : -31 dB<br>
<br>
Text #1<br>
ID : 5<br>
Format : UTF-8<br>
Codec ID : S_TEXT/UTF8<br>
Codec ID/Info : UTF-8 Plain Text<br>
Duration : 1 h 11 min<br>
Bit rate : 51 b/s<br>
Frame rate : 0.204 FPS<br>
Count of elements : 879<br>
Stream size : 27.1 KiB (0%)<br>
Language : Polish<br>
Default : No<br>
Forced : No<br>
<br>
Text #2<br>
ID : 6<br>
Format : UTF-8<br>
Codec ID : S_TEXT/UTF8<br>
Codec ID/Info : UTF-8 Plain Text<br>
Duration : 1 h 8 min<br>
Bit rate : 60 b/s<br>
Frame rate : 0.236 FPS<br>
Count of elements : 969<br>
Stream size : 30.3 KiB (0%)<br>
Language : English<br>
Default : No<br>
Forced : No<br>
<br>
Menu<br>
00:00:00.000 : en:1. FBI Warning<br>
00:00:03.000 : en:2. Studio Logo<br>
00:00:28.000 : en:3. Barbie and her sisters arrive at Alpine Riding Academy<br>
00:05:50.000 : en:4. Stacie and Chelsea meet their horses<br>
00:10:39.000 : en:5. Stacie tries her hand at riding for the first time<br>
00:12:22.000 : en:6. Barbie tries to pick out a horse<br>
00:14:13.000 : en:7. Barbie and her sister have a rude awakening<br>
00:15:20.000 : en:8. The girls prepare for their first ride and Barbie sees something strange<br>
00:17:20.000 : en:9. Etienne tells Barbie about the Majestique horses<br>
00:22:30.000 : en:10. Barbie runs into trouble<br>
00:24:33.000 : en:11. Stacie struggles with riding<br>
00:25:42.000 : en:12. Barbie searches for the mysterious Majestique horse<br>
00:28:51.000 : en:13. Jonas and Skipper tease each other<br>
00:29:37.000 : en:14. Marlene persuades Chelsea to give Dash another chance<br>
00:31:24.000 : en:15. Philippe is up to something<br>
00:31:53.000 : en:16. Stacie continues to struggle with Pepper<br>
00:33:27.000 : en:17. Philippe tries to follow Barbie<br>
00:34:48.000 : en:18. Barbie gets to know Majesty better<br>
00:37:54.000 : en:19. Skipper offers to help Marlene<br>
00:39:46.000 : en:20. Skipper tells Barbie about the problems facing the academy<br>
00:41:54.000 : en:21. Barbie helps Stacie befriend Pepper<br>
00:44:10.000 : en:22. The tournament begins<br>
00:48:10.000 : en:23. Everyone prepares for the dance after a long day<br>
00:49:40.000 : en:24. Everyone enjoys the dance<br>
00:52:39.000 : en:25. Chelsea gives everyone a scare<br>
00:55:07.000 : en:26. Jonas helps Skipper and Barbie look for the horses<br>
00:58:22.000 : en:27. Barbie and Majesty compete in the steeplechase<br>
01:05:22.000 : en:28. The winner is announced<br>
01:06:52.000 : en:29. Barbie changes her mind as the group prepares to leave<br>
<br>
<div class="bbCodeBlock bbCodeVfcHH HiddenContent">
<div class="attribution type">Hidden Content:</div>
<blockquote>You must reply before you can see the hidden data contained here.</blockquote>
</div>
<div class="messageTextEndMarker">&nbsp;</div>
</blockquote>
</article>]]></description>
                <author><![CDATA[BestBoy_PL]]></author>
                </item>

                
                <item>
                <title><![CDATA[【Requests】[REQ AUD] - 2NE1| MTBD (First Quran Version in Lossless)]]></title>
                <link><![CDATA[https://sharemania.us/threads/2ne1-mtbd-first-quran-version-in-lossless.247703/]]></link>
                <description><![CDATA[<article>
<blockquote class="messageText SelectQuoteContainer ugc baseHtml">
<div style="text-align: center">Searching for a lossless file of this song when it first came out including a Quran verse, I like it more<br>
<br>
Hope someone has it, please share, thank you!<br>
<span data-s9e-mediaembed="youtube" style="display:inline-block;width:100%;max-width:640px"><span style="display:block;overflow:hidden;position:relative;padding-bottom:56.25%"><iframe allowfullscreen="" loading="lazy" scrolling="no" style="background:url(https://i.ytimg.com/vi/PDt_IkYSw9c/hqdefault.jpg) 50% 50% / cover;border:0;height:100%;left:0;position:absolute;width:100%" src="https://www.youtube.com/embed/PDt_IkYSw9c"></iframe></span></span>​</div>
<div class="messageTextEndMarker">&nbsp;</div>
</blockquote>
</article>]]></description>
                <author><![CDATA[TheMagicKingdom]]></author>
                </item>

                
                <item>
                <title><![CDATA[【Cinema Center】MOVIE - Batman.Unlimited.Monster.Mayhem.2015.1080p.AMZN.MULTi.WEB-DL.H.264-Sebastian09]]></title>
                <link><![CDATA[https://sharemania.us/threads/batman-unlimited-monster-mayhem-2015-1080p-amzn-multi-web-dl-h-264-sebastian09.247706/]]></link>
                <description><![CDATA[<article>
<blockquote class="messageText SelectQuoteContainer ugc baseHtml">
General<br>
Unique ID : 199820306264751511457459047863680512278 (0x9653FDBAE7A2BFA6EFAAF1A9D3783116)<br>
Complete name : Batman.Unlimited.Monster.Mayhem.2015.1080p.AMZN.MULTi.WEB-DL.H.264-Sebastian09.mkv<br>
Format : Matroska<br>
Format version : Version 4<br>
File size : 3.00 GiB<br>
Duration : 1 h 20 min<br>
Overall bit rate : 5 359 kb/s<br>
Frame rate : 23.976 FPS<br>
Encoded date : 2024-06-23 09:17:48 UTC<br>
Writing application : mkvmerge v82.0 ('I'm The President') 64-bit<br>
Writing library : libebml v1.4.5 + libmatroska v1.7.1<br>
<br>
Video<br>
ID : 1<br>
Format : AVC<br>
Format/Info : Advanced Video Codec<br>
Format profile : High@L4<br>
Format settings : CABAC / 4 Ref Frames<br>
Format settings, CABAC : Yes<br>
Format settings, Reference frames : 4 frames<br>
Codec ID : V_MPEG4/ISO/AVC<br>
Duration : 1 h 20 min<br>
Bit rate mode : Constant<br>
Bit rate : 4 076 kb/s<br>
Nominal bit rate : 10 000 kb/s<br>
Width : 1 920 pixels<br>
Height : 1 080 pixels<br>
Display aspect ratio : 16:9<br>
Frame rate mode : Constant<br>
Frame rate : 23.976 (24000/1001) FPS<br>
Color space : YUV<br>
Chroma subsampling : 4:2:0<br>
Bit depth : 8 bits<br>
Scan type : Progressive<br>
Bits/(Pixel*Frame) : 0.082<br>
Stream size : 2.28 GiB (76%)<br>
Default : Yes<br>
Forced : No<br>
Color range : Limited<br>
Color primaries : BT.709<br>
Transfer characteristics : BT.709<br>
Matrix coefficients : BT.709<br>
<br>
Audio #1<br>
ID : 2<br>
Format : E-AC-3<br>
Format/Info : Enhanced AC-3<br>
Commercial name : Dolby Digital Plus<br>
Codec ID : A_EAC3<br>
Duration : 1 h 20 min<br>
Bit rate mode : Constant<br>
Bit rate : 640 kb/s<br>
Channel(s) : 6 channels<br>
Channel layout : L R C LFE Ls Rs<br>
Sampling rate : 48.0 kHz<br>
Frame rate : 31.250 FPS (1536 SPF)<br>
Compression mode : Lossy<br>
Stream size : 367 MiB (12%)<br>
Language : Polish<br>
Service kind : Complete Main<br>
Default : Yes<br>
Forced : No<br>
Dialog Normalization : -31 dB<br>
compr : -0.28 dB<br>
dialnorm_Average : -31 dB<br>
dialnorm_Minimum : -31 dB<br>
dialnorm_Maximum : -31 dB<br>
<br>
Audio #2<br>
ID : 3<br>
Format : E-AC-3<br>
Format/Info : Enhanced AC-3<br>
Commercial name : Dolby Digital Plus<br>
Codec ID : A_EAC3<br>
Duration : 1 h 20 min<br>
Bit rate mode : Constant<br>
Bit rate : 640 kb/s<br>
Channel(s) : 6 channels<br>
Channel layout : L R C LFE Ls Rs<br>
Sampling rate : 48.0 kHz<br>
Frame rate : 31.250 FPS (1536 SPF)<br>
Compression mode : Lossy<br>
Stream size : 367 MiB (12%)<br>
Language : English<br>
Service kind : Complete Main<br>
Default : No<br>
Forced : No<br>
Dialog Normalization : -31 dB<br>
compr : -0.28 dB<br>
dialnorm_Average : -31 dB<br>
dialnorm_Minimum : -31 dB<br>
dialnorm_Maximum : -31 dB<br>
<br>
Text #1<br>
ID : 4<br>
Format : UTF-8<br>
Codec ID : S_TEXT/UTF8<br>
Codec ID/Info : UTF-8 Plain Text<br>
Duration : 1 h 17 min<br>
Bit rate : 38 b/s<br>
Frame rate : 0.165 FPS<br>
Count of elements : 765<br>
Stream size : 21.9 KiB (0%)<br>
Language : Polish<br>
Default : No<br>
Forced : No<br>
<br>
Text #2<br>
ID : 5<br>
Format : UTF-8<br>
Codec ID : S_TEXT/UTF8<br>
Codec ID/Info : UTF-8 Plain Text<br>
Duration : 1 h 17 min<br>
Bit rate : 52 b/s<br>
Frame rate : 0.234 FPS<br>
Count of elements : 1086<br>
Stream size : 29.9 KiB (0%)<br>
Language : English<br>
Default : No<br>
Forced : No<br>
<div class="bbCodeBlock bbCodeVfcHH HiddenContent">
<div class="attribution type">Hidden Content:</div>
<blockquote>You must reply before you can see the hidden data contained here.</blockquote>
</div>
<div class="messageTextEndMarker">&nbsp;</div>
</blockquote>
</article>]]></description>
                <author><![CDATA[BestBoy_PL]]></author>
                </item>

                
                <item>
                <title><![CDATA[【Cinema Center】MOVIE - High.Strung.2016.1080p.ROKU.WEB-DL.DD5.1.H.264-Samuel]]></title>
                <link><![CDATA[https://sharemania.us/threads/high-strung-2016-1080p-roku-web-dl-dd5-1-h-264-samuel.247704/]]></link>
                <description><![CDATA[<article>
<blockquote class="messageText SelectQuoteContainer ugc baseHtml">
<div style="text-align: center"><b><span style="font-size: 26px">High Strung</span></b><br>
<img src="https://i.imgur.com/kX0c41o.jpeg" class="bbCodeImage LbImage" alt="[​IMG]" data-url="https://i.imgur.com/kX0c41o.jpeg" style=""><br>
<b><a href="https://i.imgur.com/aJrKIXw.jpeg" target="_blank" class="externalLink" rel="nofollow">Alternate Artwork 1</a></b> | <b><a href="https://i.imgur.com/ODKVvcn.jpeg" target="_blank" class="externalLink" rel="nofollow">Alternate Artwork 2</a></b> | <b><a href="https://i.imgur.com/HJSCqaV.jpeg" target="_blank" class="externalLink" rel="nofollow">Alternate Artwork 3</a></b> | <b><a href="https://i.imgur.com/08mHsvv.jpeg" target="_blank" class="externalLink" rel="nofollow">Alternate Artwork 4</a></b> | <b><a href="https://i.imgur.com/JTt8v8s.jpg" target="_blank" class="externalLink" rel="nofollow">Poster 1</a></b> | <b><a href="https://i.imgur.com/boIRUNC.jpeg" target="_blank" class="externalLink" rel="nofollow">Poster 2</a></b> | <b><a href="https://i.imgur.com/iOP3seA.jpeg" target="_blank" class="externalLink" rel="nofollow">Poster 3</a></b> | <b><a href="https://i.imgur.com/wIHTOFf.jpeg" target="_blank" class="externalLink" rel="nofollow">Thumbnail</a></b> | <b><a href="https://i.imgur.com/UiDvVjh.jpeg" target="_blank" class="externalLink" rel="nofollow">Key Art</a></b><br>
<br>
2016 | TV14 | Dramas • Music • Romance<br>
Keenan Kampa, Nicholas Galitzine, Paul Freeman<br>
<b>Directed By:</b> Michael Damian<br>
<br>
<div class="bbCodeBlock bbCodeQuote">
<aside>
<blockquote class="quoteContainer"><div class="quote"><b><span style="font-size: 15px">Description</span></b><br>
Sparks fly between a young ballerina (Keenan Kampa) and a British violinist (Nicholas Galitzine) as they prepare for a musical competition.</div><div class="quoteExpand">Click to expand...</div></blockquote>
</aside>
</div>
<div class="bbCodeBlock bbCodeQuote">
<aside>
<blockquote class="quoteContainer"><div class="quote"><b><span style="font-size: 15px">More Information</span></b><br>
<b>Cast:</b> Keenan Kampa, Nicholas Galitzine, Paul Freeman, Jane Seymour, Richard Southgate, Sonoya Mizuno, Anabel Kutay, Marcus Mitchell, John Silver, Ian Eastwood, Comfort Fedoke, Maia Morgenstern, Miranda Wilson, Dragos Savulescu<br>
<b>Genres:</b> Dramas, Music, Romance<br>
<b>Directors:</b> Michael Damian<br>
<br>
<b>Captions:</b> English [Closed caption]<br>
<b>Audio track:</b> English (Original), English (Original) (Dolby)</div><div class="quoteExpand">Click to expand...</div></blockquote>
</aside>
</div>
<div class="bbCodeBlock bbCodeQuote">
<aside>
<blockquote class="quoteContainer"><div class="quote"><span style="font-size: 15px"><b>Source</b></span><br>
<img src="https://i.imgur.com/sxdbEA9.png" class="bbCodeImage LbImage" alt="[​IMG]" data-url="https://i.imgur.com/sxdbEA9.png" style=""></div><div class="quoteExpand">Click to expand...</div></blockquote>
</aside>
</div>
<div class="bbCodeBlock bbCodeQuote">
<aside>
<blockquote class="quoteContainer"><div class="quote"><b><span style="font-size: 15px">Release Name</span></b><br>
High.Strung.2016.1080p.ROKU.WEB-DL.DD5.1.H.264-Samuel</div><div class="quoteExpand">Click to expand...</div></blockquote>
</aside>
</div>
<div class="ToggleTriggerAnchor bbCodeSpoilerContainer">
<button type="button" class="button bbCodeSpoilerButton ToggleTrigger Tooltip JsOnly" data-target="> .SpoilerTarget"><span>Spoiler: <span class="SpoilerTitle">Media Information</span></span></button>
<div class="SpoilerTarget bbCodeSpoilerText">General<br>
Complete name : High.Strung.2016.1080p.ROKU.WEB-DL.DD5.1.H.264-Samuel.mkv<br>
Format : Matroska<br>
Format version : Version 4<br>
File size : 4.05 GiB<br>
Duration : 1 h 36 min<br>
Overall bit rate : 6 017 kb/s<br>
Frame rate : 23.976 FPS<br>
Encoded date : 2024-06-17 16:59:51 UTC<br>
Writing application : mkvmerge v85.0 ('Shame For You') 64-bit<br>
Writing library : libebml v1.4.5 + libmatroska v1.7.1<br>
<br>
Video<br>
ID : 1<br>
Format : AVC<br>
Format/Info : Advanced Video Codec<br>
Format profile : High@L4<br>
Format settings : CABAC / 3 Ref Frames<br>
Format settings, CABAC : Yes<br>
Format settings, Reference frames : 3 frames<br>
Format settings, Slice count : 3 slices per frame<br>
Codec ID : V_MPEG4/ISO/AVC<br>
Duration : 1 h 36 min<br>
Bit rate mode : Constant<br>
Bit rate : 5 672 kb/s<br>
Width : 1 920 pixels<br>
Height : 1 080 pixels<br>
Display aspect ratio : 16:9<br>
Frame rate mode : Constant<br>
Frame rate : 23.976 (24000/1001) FPS<br>
Color space : YUV<br>
Chroma subsampling : 4:2:0<br>
Bit depth : 8 bits<br>
Scan type : Progressive<br>
Bits/(Pixel*Frame) : 0.114<br>
Stream size : 3.79 GiB (94%)<br>
Default : Yes<br>
Forced : No<br>
<br>
Audio<br>
ID : 2<br>
Format : AC-3<br>
Format/Info : Audio Coding 3<br>
Commercial name : Dolby Digital<br>
Codec ID : A_AC3<br>
Duration : 1 h 36 min<br>
Bit rate mode : Constant<br>
Bit rate : 384 kb/s<br>
Channel(s) : 6 channels<br>
Channel layout : L R C LFE Ls Rs<br>
Sampling rate : 48.0 kHz<br>
Frame rate : 31.250 FPS (1536 SPF)<br>
Compression mode : Lossy<br>
Stream size : 265 MiB (6%)<br>
Language : English<br>
Service kind : Complete Main<br>
Default : Yes<br>
Forced : No<br>
Dialog Normalization : -27 dB<br>
compr : -0.28 dB<br>
cmixlev : -3.0 dB<br>
surmixlev : -3 dB<br>
mixlevel : 285 dB<br>
roomtyp : 3<br>
ltrtcmixlev : -3.0 dB<br>
ltrtsurmixlev : -3.0 dB<br>
lorocmixlev : -3.0 dB<br>
lorosurmixlev : -3.0 dB<br>
dialnorm_Average : -27 dB<br>
dialnorm_Minimum : -27 dB<br>
dialnorm_Maximum : -27 dB<br>
<br>
Text<br>
ID : 3<br>
Format : UTF-8<br>
Codec ID : S_TEXT/UTF8<br>
Codec ID/Info : UTF-8 Plain Text<br>
Duration : 1 h 31 min<br>
Bit rate : 46 b/s<br>
Frame rate : 0.217 FPS<br>
Count of elements : 1192<br>
Stream size : 31.3 KiB (0%)<br>
Title : SDH<br>
Language : English<br>
Default : No<br>
Forced : No</div>
</div><br>
<b>Screenshots</b><br>
<img src="https://i.imgur.com/Umks1KU.png" class="bbCodeImage LbImage" alt="[​IMG]" data-url="https://i.imgur.com/Umks1KU.png" style=""><br>
<br>
<b>Download</b><br>
<div class="bbCodeBlock bbCodeVfcHH HiddenContent">
<div class="attribution type">Hidden Content:</div>
<blockquote>You must reply before you can see the hidden data contained here.</blockquote>
</div></div>
<div class="messageTextEndMarker">&nbsp;</div>
</blockquote>
</article>]]></description>
                <author><![CDATA[Samuel]]></author>
                </item>

                
                <item>
                <title><![CDATA[【Cinema Center】SERIES - Eu, a Patroa e as Crianças (Temporada 1/5)]]></title>
                <link><![CDATA[https://sharemania.us/threads/eu-a-patroa-e-as-crian%C3%A7as-temporada-1-5.247707/]]></link>
                <description><![CDATA[<article>
<blockquote class="messageText SelectQuoteContainer ugc baseHtml">
<div style="text-align: center"><img src="https://m.media-amazon.com/images/S/pv-target-images/e022cfdf4ee759c576a61cbe387667d7b892546a0afa56ac3c4db31376c5fe22.jpg" class="bbCodeImage LbImage" alt="[​IMG]" data-url="https://m.media-amazon.com/images/S/pv-target-images/e022cfdf4ee759c576a61cbe387667d7b892546a0afa56ac3c4db31376c5fe22.jpg" style=""> <br>
Temporada 1<br>
<div class="bbCodeBlock bbCodeVfcHH HiddenContent">
<div class="attribution type">Hidden Content:</div>
<blockquote>You must either reply or click 'Like' to see the hidden information contained here.</blockquote>
</div><img src="https://m.media-amazon.com/images/S/pv-target-images/dbf210e2b614f5cf77640be284d39a894aa1a9fcf5bc19605ed4fbceb66a66a9.jpg" class="bbCodeImage LbImage" alt="[​IMG]" data-url="https://m.media-amazon.com/images/S/pv-target-images/dbf210e2b614f5cf77640be284d39a894aa1a9fcf5bc19605ed4fbceb66a66a9.jpg" style=""> <br>
Temporada 2<br>
<div class="bbCodeBlock bbCodeVfcHH HiddenContent">
<div class="attribution type">Hidden Content:</div>
<blockquote>You must either reply or click 'Like' to see the hidden information contained here.</blockquote>
</div><img src="https://m.media-amazon.com/images/S/pv-target-images/c2a511706263d0c6d20d651eee15d4a909a4c2d88acadd33272ec51adb9b80f0.jpg" class="bbCodeImage LbImage" alt="[​IMG]" data-url="https://m.media-amazon.com/images/S/pv-target-images/c2a511706263d0c6d20d651eee15d4a909a4c2d88acadd33272ec51adb9b80f0.jpg" style=""> <br>
Temporada 3<br>
<div class="bbCodeBlock bbCodeVfcHH HiddenContent">
<div class="attribution type">Hidden Content:</div>
<blockquote>You must either reply or click 'Like' to see the hidden information contained here.</blockquote>
</div><img src="https://m.media-amazon.com/images/S/pv-target-images/0b7758641e11585a7505631928c66d2bfe8c3535ee391f703a19f12ba64fc0ce.jpg" class="bbCodeImage LbImage" alt="[​IMG]" data-url="https://m.media-amazon.com/images/S/pv-target-images/0b7758641e11585a7505631928c66d2bfe8c3535ee391f703a19f12ba64fc0ce.jpg" style=""> <br>
Temporada 4<br>
<div class="bbCodeBlock bbCodeVfcHH HiddenContent">
<div class="attribution type">Hidden Content:</div>
<blockquote>You must either reply or click 'Like' to see the hidden information contained here.</blockquote>
</div><img src="https://m.media-amazon.com/images/S/pv-target-images/fa7803fee9c1e6c377531afda8b0e5167afa0ac01fda9a6b28886a1f2082acf4.jpg" class="bbCodeImage LbImage" alt="[​IMG]" data-url="https://m.media-amazon.com/images/S/pv-target-images/fa7803fee9c1e6c377531afda8b0e5167afa0ac01fda9a6b28886a1f2082acf4.jpg" style=""> <br>
Temporada 5<br>
<div class="bbCodeBlock bbCodeVfcHH HiddenContent">
<div class="attribution type">Hidden Content:</div>
<blockquote>You must either reply or click 'Like' to see the hidden information contained here.</blockquote>
</div></div>
<div class="messageTextEndMarker">&nbsp;</div>
</blockquote>
</article>]]></description>
                <author><![CDATA[Fan Made]]></author>
                </item>

                </channel></rss>